{
  "accessors": [
    {
      "bufferView": 2,
      "componentType": 5126,
      "count": 65532,
      "max": [
        0.5,
        -0.15413500368595123,
        0.5
      ],
      "min": [
        -0.5,
        -0.18895600736141205,
        -0.5
      ],
      "type": "VEC3"
    },
    {
      "bufferView": 2,
      "byteOffset": 786384,
      "componentType": 5126,
      "count": 65532,
      "max": [
        0.3844846785068512,
        -0.8658795952796936,
        0.4102247953414917
      ],
      "min": [
        -0.45874619483947754,
        -0.9999998211860657,
        -0.39818477630615234
      ],
      "type": "VEC3"
    },
    {
      "bufferView": 1,
      "componentType": 5126,
      "count": 65532,
      "max": [
        1.0,
        1.0
      ],
      "min": [
        0.0,
        0.0
      ],
      "type": "VEC2"
    },
    {
      "bufferView": 0,
      "componentType": 5125,
      "count": 335529,
      "type": "SCALAR"
    },
    {
      "bufferView": 2,
      "byteOffset": 1572768,
      "componentType": 5126,
      "count": 65532,
      "max": [
        0.5,
        -0.15432299673557281,
        0.466499000787735
      ],
      "min": [
        -0.498324990272522,
        -0.18923600018024445,
        -0.17839199304580688
      ],
      "type": "VEC3"
    },
    {
      "bufferView": 2,
      "byteOffset": 2359152,
      "componentType": 5126,
      "count": 65532,
      "max": [
        0.39510247111320496,
        -0.8645878434181213,
        0.401132196187973
      ],
      "min": [
        -0.4738145172595978,
        -0.9999999403953552,
        -0.4253409802913666
      ],
      "type": "VEC3"
    },
    {
      "bufferView": 1,
      "byteOffset": 524256,
      "componentType": 5126,
      "count": 65532,
      "max": [
        1.0,
        0.9664989709854126
      ],
      "min": [
        0.0016749999485909939,
        0.3216080069541931
      ],
      "type": "VEC2"
    },
    {
      "bufferView": 0,
      "byteOffset": 1342116,
      "componentType": 5125,
      "count": 319425,
      "type": "SCALAR"
    },
    {
      "bufferView": 2,
      "byteOffset": 3145536,
      "componentType": 5126,
      "count": 65532,
      "max": [
        0.5,
        -0.14890700578689575,
        0.3324959874153137
      ],
      "min": [
        -0.498324990272522,
        -0.18799400329589844,
        -0.32914599776268005
      ],
      "type": "VEC3"
    },
    {
      "bufferView": 2,
      "byteOffset": 3931920,
      "componentType": 5126,
      "count": 65532,
      "max": [
        0.509186863899231,
        -0.8535512089729309,
        0.3920169472694397
      ],
      "min": [
        -0.4064711332321167,
        -0.9999999403953552,
        -0.49593374133110046
      ],
      "type": "VEC3"
    },
    {
      "bufferView": 1,
      "byteOffset": 1048512,
      "componentType": 5126,
      "count": 65532,
      "max": [
        1.0,
        0.8324959874153137
      ],
      "min": [
        0.0016749999485909939,
        0.17085400223731995
      ],
      "type": "VEC2"
    },
    {
      "bufferView": 0,
      "byteOffset": 2619816,
      "componentType": 5125,
      "count": 315045,
      "type": "SCALAR"
    },
    {
      "bufferView": 2,
      "byteOffset": 4718304,
      "componentType": 5126,
      "count": 65532,
      "max": [
        0.5,
        -0.1447789967060089,
        -0.030988000333309174
      ],
      "min": [
        -0.49665001034736633,
        -0.1758359968662262,
        -0.5
      ],
      "type": "VEC3"
    },
    {
      "bufferView": 2,
      "byteOffset": 5504688,
      "componentType": 5126,
      "count": 65532,
      "max": [
        0.4225229322910309,
        -0.8767672777175903,
        0.4696732759475708
      ],
      "min": [
        -0.37680572271347046,
        -1.0,
        -0.47106242179870605
      ],
      "type": "VEC3"
    },
    {
      "bufferView": 1,
      "byteOffset": 1572768,
      "componentType": 5126,
      "count": 65532,
      "max": [
        1.0,
        0.46901199221611023
      ],
      "min": [
        0.0033499998971819878,
        0.0
      ],
      "type": "VEC2"
    },
    {
      "bufferView": 0,
      "byteOffset": 3879996,
      "componentType": 5125,
      "count": 336717,
      "type": "SCALAR"
    },
    {
      "bufferView": 2,
      "byteOffset": 6291072,
      "componentType": 5126,
      "count": 65532,
      "max": [
        0.5,
        -0.14487500488758087,
        -0.24204400181770325
      ],
      "min": [
        -0.4949750006198883,
        -0.17538100481033325,
        -0.5
      ],
      "type": "VEC3"
    },
    {
      "bufferView": 2,
      "byteOffset": 7077456,
      "componentType": 5126,
      "count": 65532,
      "max": [
        0.4586111903190613,
        -0.8581744432449341,
        0.4696732759475708
      ],
      "min": [
        -0.43241938948631287,
        -1.0,
        -0.4171846807003021
      ],
      "type": "VEC3"
    },
    {
      "bufferView": 1,
      "byteOffset": 2097024,
      "componentType": 5126,
      "count": 65532,
      "max": [
        1.0,
        0.25795599818229675
      ],
      "min": [
        0.005024999845772982,
        0.0
      ],
      "type": "VEC2"
    },
    {
      "bufferView": 0,
      "byteOffset": 5226864,
      "componentType": 5125,
      "count": 350685,
      "type": "SCALAR"
    },
    {
      "bufferView": 2,
      "byteOffset": 7863840,
      "componentType": 5126,
      "count": 65532,
      "max": [
        0.5,
        -0.14574000239372253,
        0.18676699697971344
      ],
      "min": [
        -0.4949750006198883,
        -0.17925000190734863,
        -0.3860970139503479
      ],
      "type": "VEC3"
    },
    {
      "bufferView": 2,
      "byteOffset": 8650224,
      "componentType": 5126,
      "count": 65532,
      "max": [
        0.5111069083213806,
        -0.8468791842460632,
        0.4088551998138428
      ],
      "min": [
        -0.4123595058917999,
        -0.9999998211860657,
        -0.4448961019515991
      ],
      "type": "VEC3"
    },
    {
      "bufferView": 1,
      "byteOffset": 2621280,
      "componentType": 5126,
      "count": 65532,
      "max": [
        1.0,
        0.6867669820785522
      ],
      "min": [
        0.005024999845772982,
        0.1139030009508133
      ],
      "type": "VEC2"
    },
    {
      "bufferView": 0,
      "byteOffset": 6629604,
      "componentType": 5125,
      "count": 334962,
      "type": "SCALAR"
    },
    {
      "bufferView": 2,
      "byteOffset": 9436608,
      "componentType": 5126,
      "count": 31541,
      "max": [
        0.5,
        -0.15490399301052094,
        0.23031799495220184
      ],
      "min": [
        -0.49665001034736633,
        -0.18282300233840942,
        0.05276399850845337
      ],
      "type": "VEC3"
    },
    {
      "bufferView": 2,
      "byteOffset": 9815100,
      "componentType": 5126,
      "count": 31541,
      "max": [
        0.4209965765476227,
        -0.8596961498260498,
        0.3640749454498291
      ],
      "min": [
        -0.4596400260925293,
        -0.9999995231628418,
        -0.5073156952857971
      ],
      "type": "VEC3"
    },
    {
      "bufferView": 1,
      "byteOffset": 3145536,
      "componentType": 5126,
      "count": 31541,
      "max": [
        1.0,
        0.730318009853363
      ],
      "min": [
        0.0033499998971819878,
        0.5527639985084534
      ],
      "type": "VEC2"
    },
    {
      "bufferView": 0,
      "byteOffset": 7969452,
      "componentType": 5125,
      "count": 146091,
      "type": "SCALAR"
    }
  ],
  "asset": {
    "extras": {
      "author": "artfromheath (https://sketchfab.com/artfromheath)",
      "license": "CC-BY-4.0 (http://creativecommons.org/licenses/by/4.0/)",
      "source": "https://sketchfab.com/3d-models/hot-desert-biome-terrain-99865b3ea39040b18786b8654921a75d",
      "title": "Hot Desert Biome - Terrain"
    },
    "generator": "Sketchfab-15.9.0",
    "version": "2.0"
  },
  "bufferViews": [
    {
      "buffer": 0,
      "byteLength": 8553816,
      "name": "floatBufferViews",
      "target": 34963
    },
    {
      "buffer": 0,
      "byteLength": 3397864,
      "byteOffset": 8553816,
      "byteStride": 8,
      "name": "floatBufferViews",
      "target": 34962
    },
    {
      "buffer": 0,
      "byteLength": 10193592,
      "byteOffset": 11951680,
      "byteStride": 12,
      "name": "floatBufferViews",
      "target": 34962
    }
  ],
  "buffers": [
    {
      "byteLength": 22145272,
      "uri": "scene.bin"
    }
  ],
  "extensionsUsed": [
    "KHR_materials_specular"
  ],
  "images": [
    {
      "uri": "textures/material_0_baseColor.png"
    }
  ],
  "materials": [
    {
      "doubleSided": true,
      "extensions": {
        "KHR_materials_specular": {
          "specularColorFactor": [
            1.0,
            1.0,
            1.0
          ],
          "specularFactor": 0.0
        }
      },
      "name": "material_0",
      "pbrMetallicRoughness": {
        "baseColorTexture": {
          "index": 0
        },
        "metallicFactor": 0.0
      }
    }
  ],
  "meshes": [
    {
      "name": "Object_0",
      "primitives": [
        {
          "attributes": {
            "NORMAL": 1,
            "POSITION": 0,
            "TEXCOORD_0": 2
          },
          "indices": 3,
          "material": 0,
          "mode": 4
        }
      ]
    },
    {
      "name": "Object_1",
      "primitives": [
        {
          "attributes": {
            "NORMAL": 5,
            "POSITION": 4,
            "TEXCOORD_0": 6
          },
          "indices": 7,
          "material": 0,
          "mode": 4
        }
      ]
    },
    {
      "name": "Object_2",
      "primitives": [
        {
          "attributes": {
            "NORMAL": 9,
            "POSITION": 8,
            "TEXCOORD_0": 10
          },
          "indices": 11,
          "material": 0,
          "mode": 4
        }
      ]
    },
    {
      "name": "Object_3",
      "primitives": [
        {
          "attributes": {
            "NORMAL": 13,
            "POSITION": 12,
            "TEXCOORD_0": 14
          },
          "indices": 15,
          "material": 0,
          "mode": 4
        }
      ]
    },
    {
      "name": "Object_4",
      "primitives": [
        {
          "attributes": {
            "NORMAL": 17,
            "POSITION": 16,
            "TEXCOORD_0": 18
          },
          "indices": 19,
          "material": 0,
          "mode": 4
        }
      ]
    },
    {
      "name": "Object_5",
      "primitives": [
        {
          "attributes": {
            "NORMAL": 21,
            "POSITION": 20,
            "TEXCOORD_0": 22
          },
          "indices": 23,
          "material": 0,
          "mode": 4
        }
      ]
    },
    {
      "name": "Object_6",
      "primitives": [
        {
          "attributes": {
            "NORMAL": 25,
            "POSITION": 24,
            "TEXCOORD_0": 26
          },
          "indices": 27,
          "material": 0,
          "mode": 4
        }
      ]
    }
  ],
  "nodes": [
    {
      "children": [
        1
      ],
      "matrix": [
        1.0,
        -4.8033446892643715e-32,
        1.6081226229577292e-16,
        0.0,
        1.232595164407831e-32,
        -1.0,
        -4.440892098500626e-16,
        0.0,
        1.6081226229577292e-16,
        4.440892098500626e-16,
        -1.0,
        0.0,
        0.0,
        0.0,
        0.0,
        1.0
      ],
      "name": "Sketchfab_model"
    },
    {
      "children": [
        2,
        3,
        4,
        5,
        6,
        7,
        8
      ],
      "name": "CalidiousDesert_obj.obj.cleaner.materialmerger.gles"
    },
    {
      "mesh": 0,
      "name": "Object_2"
    },
    {
      "mesh": 1,
      "name": "Object_3"
    },
    {
      "mesh": 2,
      "name": "Object_4"
    },
    {
      "mesh": 3,
      "name": "Object_5"
    },
    {
      "mesh": 4,
      "name": "Object_6"
    },
    {
      "mesh": 5,
      "name": "Object_7"
    },
    {
      "mesh": 6,
      "name": "Object_8"
    }
  ],
  "samplers": [
    {
      "magFilter": 9729,
      "minFilter": 9987,
      "wrapS": 10497,
      "wrapT": 10497
    }
  ],
  "scene": 0,
  "scenes": [
    {
      "name": "Sketchfab_Scene",
      "nodes": [
        0
      ]
    }
  ],
  "textures": [
    {
      "sampler": 0,
      "source": 0
    }
  ]
}
