{
  "accessors": [
    {
      "bufferView": 2,
      "componentType": 5126,
      "count": 65532,
      "max": [
        1.365986943244934,
        0.7596967220306396,
        1.3051258325576782
      ],
      "min": [
        0.08736920356750488,
        -0.1540416181087494,
        -0.5784782767295837
      ],
      "type": "VEC3"
    },
    {
      "bufferView": 2,
      "byteOffset": 786384,
      "componentType": 5126,
      "count": 65532,
      "max": [
        0.9999912977218628,
        0.9999982714653015,
        0.9999740123748779
      ],
      "min": [
        -0.9998414516448975,
        -0.9972313046455383,
        -0.9999449253082275
      ],
      "type": "VEC3"
    },
    {
      "bufferView": 1,
      "componentType": 5126,
      "count": 65532,
      "max": [
        0.998656690120697,
        0.9962865710258484
      ],
      "min": [
        6.432522786781192e-05,
        6.431341171264648e-05
      ],
      "type": "VEC2"
    },
    {
      "bufferView": 0,
      "componentType": 5125,
      "count": 308742,
      "type": "SCALAR"
    },
    {
      "bufferView": 2,
      "byteOffset": 1572768,
      "componentType": 5126,
      "count": 65532,
      "max": [
        1.3527193069458008,
        0.765715479850769,
        1.3079100847244263
      ],
      "min": [
        0.1152639240026474,
        -0.14100074768066406,
        -0.6092293858528137
      ],
      "type": "VEC3"
    },
    {
      "bufferView": 2,
      "byteOffset": 2359152,
      "componentType": 5126,
      "count": 65532,
      "max": [
        0.9999136328697205,
        0.9999982714653015,
        0.9999723434448242
      ],
      "min": [
        -0.9998292326927185,
        -0.9337748885154724,
        -0.9999402761459351
      ],
      "type": "VEC3"
    },
    {
      "bufferView": 1,
      "byteOffset": 524256,
      "componentType": 5126,
      "count": 65532,
      "max": [
        0.9966153502464294,
        0.9965972900390625
      ],
      "min": [
        0.0026666962075978518,
        0.0008362531661987305
      ],
      "type": "VEC2"
    },
    {
      "bufferView": 0,
      "byteOffset": 1234968,
      "componentType": 5125,
      "count": 301059,
      "type": "SCALAR"
    },
    {
      "bufferView": 2,
      "byteOffset": 3145536,
      "componentType": 5126,
      "count": 65532,
      "max": [
        1.3591742515563965,
        0.7678804397583008,
        1.3158104419708252
      ],
      "min": [
        0.10066258907318115,
        -0.14684897661209106,
        -0.6030555367469788
      ],
      "type": "VEC3"
    },
    {
      "bufferView": 2,
      "byteOffset": 3931920,
      "componentType": 5126,
      "count": 65532,
      "max": [
        0.9999595284461975,
        0.9999948740005493,
        0.9999572038650513
      ],
      "min": [
        -0.9999768733978271,
        -0.9965043663978577,
        -0.9999395608901978
      ],
      "type": "VEC3"
    },
    {
      "bufferView": 1,
      "byteOffset": 1048512,
      "componentType": 5126,
      "count": 65532,
      "max": [
        0.9995526671409607,
        0.999409556388855
      ],
      "min": [
        6.432522786781192e-05,
        0.0004502534866333008
      ],
      "type": "VEC2"
    },
    {
      "bufferView": 0,
      "byteOffset": 2439204,
      "componentType": 5125,
      "count": 235230,
      "type": "SCALAR"
    },
    {
      "bufferView": 2,
      "byteOffset": 4718304,
      "componentType": 5126,
      "count": 65532,
      "max": [
        1.137666940689087,
        0.725432276725769,
        1.2786641120910645
      ],
      "min": [
        0.212735116481781,
        -0.07926434278488159,
        -0.48357027769088745
      ],
      "type": "VEC3"
    },
    {
      "bufferView": 2,
      "byteOffset": 5504688,
      "componentType": 5126,
      "count": 65532,
      "max": [
        0.9999261498451233,
        0.9999969005584717,
        0.99998939037323
      ],
      "min": [
        -0.9999799728393555,
        -0.9965011477470398,
        -0.9999480843544006
      ],
      "type": "VEC3"
    },
    {
      "bufferView": 1,
      "byteOffset": 1572768,
      "componentType": 5126,
      "count": 65532,
      "max": [
        0.9986881017684937,
        0.996120035648346
      ],
      "min": [
        0.00045027659507468343,
        0.0007075667381286621
      ],
      "type": "VEC2"
    },
    {
      "bufferView": 0,
      "byteOffset": 3380124,
      "componentType": 5125,
      "count": 346830,
      "type": "SCALAR"
    },
    {
      "bufferView": 2,
      "byteOffset": 6291072,
      "componentType": 5126,
      "count": 19265,
      "max": [
        1.3128862380981445,
        0.7434526681900024,
        1.3000518083572388
      ],
      "min": [
        0.1347678303718567,
        -0.12734463810920715,
        -0.5983187556266785
      ],
      "type": "VEC3"
    },
    {
      "bufferView": 2,
      "byteOffset": 6522252,
      "componentType": 5126,
      "count": 19265,
      "max": [
        0.9998350143432617,
        0.9999828934669495,
        0.9999047517776489
      ],
      "min": [
        -0.9995163679122925,
        -0.9792258739471436,
        -0.9999395608901978
      ],
      "type": "VEC3"
    },
    {
      "bufferView": 1,
      "byteOffset": 2097024,
      "componentType": 5126,
      "count": 19265,
      "max": [
        0.9962841868400574,
        0.9979035258293152
      ],
      "min": [
        0.00019297568360343575,
        0.00019299983978271484
      ],
      "type": "VEC2"
    },
    {
      "bufferView": 0,
      "byteOffset": 4767444,
      "componentType": 5125,
      "count": 69840,
      "type": "SCALAR"
    }
  ],
  "asset": {
    "extras": {
      "author": "GoochFauxRock (https://sketchfab.com/GoochFauxRock)",
      "license": "CC-BY-4.0 (http://creativecommons.org/licenses/by/4.0/)",
      "source": "https://sketchfab.com/3d-models/sandstone-mesa-megascan-4dd149fe9b094675b5b4036df830665e",
      "title": "Sandstone mesa megascan"
    },
    "generator": "Sketchfab-15.5.0",
    "version": "2.0"
  },
  "bufferViews": [
    {
      "buffer": 0,
      "byteLength": 5046804,
      "name": "floatBufferViews",
      "target": 34963
    },
    {
      "buffer": 0,
      "byteLength": 2251144,
      "byteOffset": 5046804,
      "byteStride": 8,
      "name": "floatBufferViews",
      "target": 34962
    },
    {
      "buffer": 0,
      "byteLength": 6753432,
      "byteOffset": 7297948,
      "byteStride": 12,
      "name": "floatBufferViews",
      "target": 34962
    }
  ],
  "buffers": [
    {
      "byteLength": 14051380,
      "uri": "scene.bin"
    }
  ],
  "extensionsUsed": [
    "KHR_materials_unlit"
  ],
  "images": [
    {
      "uri": "textures/Material_0_baseColor.jpeg"
    }
  ],
  "materials": [
    {
      "extensions": {
        "KHR_materials_unlit": {}
      },
      "name": "Material_0",
      "pbrMetallicRoughness": {
        "baseColorTexture": {
          "index": 0
        },
        "metallicFactor": 0.0
      }
    }
  ],
  "meshes": [
    {
      "name": "Object_0",
      "primitives": [
        {
          "attributes": {
            "NORMAL": 1,
            "POSITION": 0,
            "TEXCOORD_0": 2
          },
          "indices": 3,
          "material": 0,
          "mode": 4
        }
      ]
    },
    {
      "name": "Object_1",
      "primitives": [
        {
          "attributes": {
            "NORMAL": 5,
            "POSITION": 4,
            "TEXCOORD_0": 6
          },
          "indices": 7,
          "material": 0,
          "mode": 4
        }
      ]
    },
    {
      "name": "Object_2",
      "primitives": [
        {
          "attributes": {
            "NORMAL": 9,
            "POSITION": 8,
            "TEXCOORD_0": 10
          },
          "indices": 11,
          "material": 0,
          "mode": 4
        }
      ]
    },
    {
      "name": "Object_3",
      "primitives": [
        {
          "attributes": {
            "NORMAL": 13,
            "POSITION": 12,
            "TEXCOORD_0": 14
          },
          "indices": 15,
          "material": 0,
          "mode": 4
        }
      ]
    },
    {
      "name": "Object_4",
      "primitives": [
        {
          "attributes": {
            "NORMAL": 17,
            "POSITION": 16,
            "TEXCOORD_0": 18
          },
          "indices": 19,
          "material": 0,
          "mode": 4
        }
      ]
    }
  ],
  "nodes": [
    {
      "children": [
        1
      ],
      "matrix": [
        1.0,
        0.0,
        0.0,
        0.0,
        0.0,
        2.220446049250313e-16,
        -1.0,
        0.0,
        0.0,
        1.0,
        2.220446049250313e-16,
        0.0,
        0.0,
        0.0,
        0.0,
        1.0
      ],
      "name": "Sketchfab_model"
    },
    {
      "children": [
        2
      ],
      "name": "root"
    },
    {
      "children": [
        3
      ],
      "matrix": [
        1.0,
        0.0,
        0.0,
        0.0,
        0.0,
        2.220446049250313e-16,
        1.0,
        0.0,
        0.0,
        -1.0,
        2.220446049250313e-16,
        0.0,
        0.0,
        0.0,
        0.0,
        1.0
      ],
      "name": "GLTF_SceneRootNode"
    },
    {
      "children": [
        4,
        5,
        6,
        7,
        8
      ],
      "name": "Mesh_0_0"
    },
    {
      "mesh": 0,
      "name": "Object_4"
    },
    {
      "mesh": 1,
      "name": "Object_5"
    },
    {
      "mesh": 2,
      "name": "Object_6"
    },
    {
      "mesh": 3,
      "name": "Object_7"
    },
    {
      "mesh": 4,
      "name": "Object_8"
    }
  ],
  "samplers": [
    {
      "magFilter": 9729,
      "minFilter": 9987,
      "wrapS": 10497,
      "wrapT": 10497
    }
  ],
  "scene": 0,
  "scenes": [
    {
      "name": "Sketchfab_Scene",
      "nodes": [
        0
      ]
    }
  ],
  "textures": [
    {
      "sampler": 0,
      "source": 0
    }
  ]
}
